<?xml version="1.0" encoding="utf-8"?>
<!-- Generator: Adobe Illustrator 23.0.2, SVG Export Plug-In . SVG Version: 6.00 Build 0)  -->
<svg version="1.1" id="Camada_1" xmlns="http://www.w3.org/2000/svg" xmlns:xlink="http://www.w3.org/1999/xlink" x="0px" y="0px"
	 viewBox="0 0 342.2 75.2" style="enable-background:new 0 0 342.2 75.2;" xml:space="preserve">
<style type="text/css">
	.st0{fill:#BF0811;}
</style>
<g>
	<g>
		<path class="st0" d="M2.3,3.7c12,0,24,0,36-0.1c0,3.7,0,5.6,0,9.3c-4.9,0.1-7.3,0.1-12.2,0.2c0,19.1-0.1,38.1-0.1,57.2
			c-4.6,0.6-7,0.9-11.6,1.6c0-19.5,0-39,0.1-58.6c-4.9,0.1-7.3,0.2-12.2,0.3C2.3,9.8,2.3,7.8,2.3,3.7z"/>
		<path class="st0" d="M74.8,65c-4.7,0.4-7.1,0.6-11.7,1.1c-0.8-4.5-1.2-6.7-2-11.2c-5.7,0.5-8.6,0.7-14.3,1.3
			c-0.8,4.7-1.2,7.1-2,11.9c-4.3,0.5-6.4,0.8-10.7,1.3C38,47.5,42,25.6,46.1,3.7c6.8,0,10.2,0,17,0C66.9,24.1,70.8,44.6,74.8,65z
			 M48.3,47.4c4.5-0.3,6.7-0.5,11.2-0.8C57.6,36,55.8,25.5,54,14.9C52.1,25.7,50.2,36.6,48.3,47.4z"/>
		<path class="st0" d="M93.9,2.9c11.3,0,17.1,5.4,17.1,14.8c0,0.7,0,1.1,0,1.8c-4.4,0.1-6.6,0.1-11,0.2c0-1,0-1.5,0-2.5
			c0-4.2-2.1-5.8-5.8-5.8c-3.7,0-6.1,2-5.8,6c0.9,13.3,22.5,15.1,22.7,30.8c0.1,9.3-6,15.1-17.4,15.9C82.2,65,76.3,60,76.3,50.2
			c0-1.5,0-2.3,0-3.8c4.4-0.3,6.6-0.4,11-0.6c0,1.7,0,2.6,0,4.3c0,4.3,2.3,5.7,6,5.5c3.7-0.2,6.2-2.1,6.1-6.1
			C98.8,36,76.3,34.1,76.7,18.3C77,8.7,82.6,2.9,93.9,2.9z"/>
		<path class="st0" d="M131.4,2.9c11.3,0,17.1,5.3,17.1,14.4c0,0.7,0,1.1,0,1.8c-4.4,0-6.6,0-11,0.1c0-1,0-1.4,0-2.4
			c0-4.1-2.1-5.7-5.8-5.7c-3.7,0-6.1,2-5.8,5.8c1,13,22.5,14.7,22.7,30.3c0.1,9.1-6,14.5-17.4,14.9s-17.4-4.6-17.4-14
			c0-1.4,0-2.2,0-3.6c4.4-0.2,6.6-0.2,11-0.4c0,1.7,0,2.5,0,4.2c0,4.2,2.3,5.6,6,5.4c3.7-0.1,6.3-1.9,6.1-5.8
			c-0.7-13.1-22.3-15.3-22.7-30.4C113.9,8.6,120.1,2.9,131.4,2.9z"/>
		<path class="st0" d="M153.2,3.6c4.7,0,7,0,11.6,0c0,19.1,0,38.2,0,57.3c-4.7,0-7,0-11.7,0.1C153.2,41.8,153.2,22.7,153.2,3.6z"/>
		<path class="st0" d="M170.3,17.3c0-9.2,6.2-14.4,17.7-14.4s17.7,5.3,17.7,14.5c0,10,0,20.1,0.1,30.1c0,9.3-6.2,14.3-17.7,14.1
			c-11.5-0.2-17.7-5.4-17.7-14.6C170.3,37.2,170.3,27.3,170.3,17.3z M181.9,47.7c0,4.1,2.3,5.7,6.1,5.7c3.7,0.1,6-1.5,6-5.6
			c0-10.4,0-20.7,0-31.1c0-4.1-2.3-5.7-6-5.7c-3.7,0-6,1.5-6,5.6C181.9,27.1,181.9,37.4,181.9,47.7z"/>
		<path class="st0" d="M222.7,29.6c6,0.1,9,0.2,15,0.4c0,3.4,0,5.1,0,8.5c-6-0.2-9-0.3-15.1-0.5c0,9.7,0,14.5,0.1,24.2
			c-4.7-0.2-7-0.3-11.7-0.5c0-19.3-0.1-38.7-0.1-58c10.3,0,20.5,0,30.8,0c0,3.4,0,5.1,0,8.5c-7.7-0.1-11.5-0.1-19.2-0.2
			C222.7,19,222.7,22.6,222.7,29.6z"/>
		<path class="st0" d="M245.3,3.6c4.7,0,7,0,11.6,0c0.1,17.4,0.1,34.7,0.2,52.1c7.7,0.5,11.5,0.8,19.2,1.5c0,3.6,0,5.4,0,8.9
			c-10.3-1-20.5-1.9-30.8-2.6C245.5,43.6,245.4,23.6,245.3,3.6z"/>
		<path class="st0" d="M279.1,3.7c4.7,0,7,0,11.6,0c0.1,21.3,0.1,42.7,0.2,64c-4.7-0.5-7-0.8-11.6-1.3
			C279.2,45.5,279.2,24.6,279.1,3.7z"/>
		<path class="st0" d="M336,3.7c-4,11.1-8,22.1-12.1,33.1c4.5,12.3,8.8,24.6,13,37c-4.9-0.8-7.3-1.1-12.2-1.8
			c-3.1-9.3-6.3-18.6-9.5-27.8c-3.8,10.3-5.7,15.3-9.6,25.2c-4.3-0.6-6.5-0.8-10.9-1.3c4.4-10.8,8.7-21.5,12.9-32.3
			c-4-10.7-8.1-21.4-12.2-32.1c4.8,0,7.2,0,12.1,0c3.5,9.7,5.3,14.7,8.8,24.8c3.6-9.7,5.4-14.7,9-24.7C329.5,3.7,331.6,3.7,336,3.7z
			"/>
	</g>
</g>
</svg>
